<?xml version="1.0" encoding="utf-8" standalone="no"?>
<!DOCTYPE svg PUBLIC "-//W3C//DTD SVG 1.1//EN"
  "http://www.w3.org/Graphics/SVG/1.1/DTD/svg11.dtd">
<!-- Created with matplotlib (https://matplotlib.org/) -->
<svg height="288pt" version="1.1" viewBox="0 0 432 288" width="432pt" xmlns="http://www.w3.org/2000/svg" xmlns:xlink="http://www.w3.org/1999/xlink">
 <metadata>
  <rdf:RDF xmlns:cc="http://creativecommons.org/ns#" xmlns:dc="http://purl.org/dc/elements/1.1/" xmlns:rdf="http://www.w3.org/1999/02/22-rdf-syntax-ns#">
   <cc:Work>
    <dc:type rdf:resource="http://purl.org/dc/dcmitype/StillImage"/>
    <dc:date>2020-12-27T21:27:29.249757</dc:date>
    <dc:format>image/svg+xml</dc:format>
    <dc:creator>
     <cc:Agent>
      <dc:title>Matplotlib v3.3.2, https://matplotlib.org/</dc:title>
     </cc:Agent>
    </dc:creator>
   </cc:Work>
  </rdf:RDF>
 </metadata>
 <defs>
  <style type="text/css">*{stroke-linecap:butt;stroke-linejoin:round;}</style>
 </defs>
 <g id="figure_1">
  <g id="patch_1">
   <path d="M 0 288 
L 432 288 
L 432 0 
L 0 0 
z
" style="fill:none;"/>
  </g>
  <g id="axes_1">
   <g id="patch_2">
    <path clip-path="url(#p83d3963cd8)" d="M 69.218182 242.116364 
L 72.261818 234.288524 
L 75.305455 226.618822 
L 78.349091 219.107258 
L 81.392727 211.753833 
L 84.436364 204.558545 
L 87.48 197.521396 
L 90.523636 190.642385 
L 93.567273 183.921513 
L 96.610909 177.358778 
L 99.654545 170.954182 
L 102.698182 164.707724 
L 105.741818 158.619404 
L 108.785455 152.689222 
L 111.829091 146.917178 
L 114.872727 141.303273 
L 117.916364 135.847505 
L 120.96 130.549876 
L 124.003636 125.410385 
L 127.047273 120.429033 
L 130.090909 115.605818 
L 133.134545 110.940742 
L 136.178182 106.433804 
L 139.221818 102.085004 
L 142.265455 97.894342 
L 145.309091 93.861818 
L 148.352727 89.987433 
L 151.396364 86.271185 
L 154.44 82.713076 
L 157.483636 79.313105 
L 160.527273 76.071273 
L 163.570909 72.987578 
L 166.614545 70.062022 
L 169.658182 67.294604 
L 172.701818 64.685324 
L 175.745455 62.234182 
L 178.789091 59.941178 
L 181.832727 57.806313 
L 184.876364 55.829585 
L 187.92 54.010996 
L 190.963636 52.350545 
L 194.007273 50.848233 
L 197.050909 49.504058 
L 200.094545 48.318022 
L 203.138182 47.290124 
L 206.181818 46.420364 
L 209.225455 45.708742 
L 212.269091 45.155258 
L 215.312727 44.759913 
L 218.356364 44.522705 
L 221.4 44.443636 
L 224.443636 44.522705 
L 227.487273 44.759913 
L 230.530909 45.155258 
L 233.574545 45.708742 
L 236.618182 46.420364 
L 239.661818 47.290124 
L 242.705455 48.318022 
L 245.749091 49.504058 
L 248.792727 50.848233 
L 251.836364 52.350545 
L 254.88 54.010996 
L 257.923636 55.829585 
L 260.967273 57.806313 
L 264.010909 59.941178 
L 267.054545 62.234182 
L 270.098182 64.685324 
L 273.141818 67.294604 
L 276.185455 70.062022 
L 279.229091 72.987578 
L 282.272727 76.071273 
L 285.316364 79.313105 
L 288.36 82.713076 
L 291.403636 86.271185 
L 294.447273 89.987433 
L 297.490909 93.861818 
L 300.534545 97.894342 
L 303.578182 102.085004 
L 306.621818 106.433804 
L 309.665455 110.940742 
L 312.709091 115.605818 
L 315.752727 120.429033 
L 318.796364 125.410385 
L 321.84 130.549876 
L 324.883636 135.847505 
L 327.927273 141.303273 
L 330.970909 146.917178 
L 334.014545 152.689222 
L 337.058182 158.619404 
L 340.101818 164.707724 
L 343.145455 170.954182 
L 346.189091 177.358778 
L 349.232727 183.921513 
L 352.276364 190.642385 
L 355.32 197.521396 
L 358.363636 204.558545 
L 361.407273 211.753833 
L 364.450909 219.107258 
L 367.494545 226.618822 
L 370.538182 234.288524 
L 373.581818 242.116364 
z
" style="fill:#008000;opacity:0.2;"/>
   </g>
   <g id="patch_3">
    <path clip-path="url(#p83d3963cd8)" d="M 183.354545 242.116364 
L 183.354545 167.989091 
L 259.445455 167.989091 
L 259.445455 242.116364 
z
"/>
   </g>
   <g id="line2d_1">
    <path clip-path="url(#p83d3963cd8)" d="M 69.218182 242.116364 
L 72.261818 234.288524 
L 75.305455 226.618822 
L 78.349091 219.107258 
L 81.392727 211.753833 
L 84.436364 204.558545 
L 87.48 197.521396 
L 90.523636 190.642385 
L 93.567273 183.921513 
L 96.610909 177.358778 
L 99.654545 170.954182 
L 102.698182 164.707724 
L 105.741818 158.619404 
L 108.785455 152.689222 
L 111.829091 146.917178 
L 114.872727 141.303273 
L 117.916364 135.847505 
L 120.96 130.549876 
L 124.003636 125.410385 
L 127.047273 120.429033 
L 130.090909 115.605818 
L 133.134545 110.940742 
L 136.178182 106.433804 
L 139.221818 102.085004 
L 142.265455 97.894342 
L 145.309091 93.861818 
L 148.352727 89.987433 
L 151.396364 86.271185 
L 154.44 82.713076 
L 157.483636 79.313105 
L 160.527273 76.071273 
L 163.570909 72.987578 
L 166.614545 70.062022 
L 169.658182 67.294604 
L 172.701818 64.685324 
L 175.745455 62.234182 
L 178.789091 59.941178 
L 181.832727 57.806313 
L 184.876364 55.829585 
L 187.92 54.010996 
L 190.963636 52.350545 
L 194.007273 50.848233 
L 197.050909 49.504058 
L 200.094545 48.318022 
L 203.138182 47.290124 
L 206.181818 46.420364 
L 209.225455 45.708742 
L 212.269091 45.155258 
L 215.312727 44.759913 
L 218.356364 44.522705 
L 221.4 44.443636 
L 224.443636 44.522705 
L 227.487273 44.759913 
L 230.530909 45.155258 
L 233.574545 45.708742 
L 236.618182 46.420364 
L 239.661818 47.290124 
L 242.705455 48.318022 
L 245.749091 49.504058 
L 248.792727 50.848233 
L 251.836364 52.350545 
L 254.88 54.010996 
L 257.923636 55.829585 
L 260.967273 57.806313 
L 264.010909 59.941178 
L 267.054545 62.234182 
L 270.098182 64.685324 
L 273.141818 67.294604 
L 276.185455 70.062022 
L 279.229091 72.987578 
L 282.272727 76.071273 
L 285.316364 79.313105 
L 288.36 82.713076 
L 291.403636 86.271185 
L 294.447273 89.987433 
L 297.490909 93.861818 
L 300.534545 97.894342 
L 303.578182 102.085004 
L 306.621818 106.433804 
L 309.665455 110.940742 
L 312.709091 115.605818 
L 315.752727 120.429033 
L 318.796364 125.410385 
L 321.84 130.549876 
L 324.883636 135.847505 
L 327.927273 141.303273 
L 330.970909 146.917178 
L 334.014545 152.689222 
L 337.058182 158.619404 
L 340.101818 164.707724 
L 343.145455 170.954182 
L 346.189091 177.358778 
L 349.232727 183.921513 
L 352.276364 190.642385 
L 355.32 197.521396 
L 358.363636 204.558545 
L 361.407273 211.753833 
L 364.450909 219.107258 
L 367.494545 226.618822 
L 370.538182 234.288524 
L 373.581818 242.116364 
" style="fill:none;stroke:#000000;stroke-linecap:square;stroke-width:1.5;"/>
   </g>
   <g id="line2d_2">
    <path clip-path="url(#p83d3963cd8)" d="M 69.218182 242.116364 
L 373.581818 242.116364 
" style="fill:none;stroke:#000000;stroke-linecap:square;stroke-width:1.5;"/>
   </g>
  </g>
 </g>
 <defs>
  <clipPath id="p83d3963cd8">
   <rect height="217.44" width="334.8" x="54" y="34.56"/>
  </clipPath>
 </defs>
</svg>
